<?xml version="1.0" encoding="iso-8859-1"?>
<!-- Generator: Adobe Illustrator 16.0.0, SVG Export Plug-In . SVG Version: 6.00 Build 0)  -->
<!DOCTYPE svg PUBLIC "-//W3C//DTD SVG 1.1//EN" "http://www.w3.org/Graphics/SVG/1.1/DTD/svg11.dtd">
<svg version="1.1" id="Layer_1" xmlns="http://www.w3.org/2000/svg" xmlns:xlink="http://www.w3.org/1999/xlink" x="0px" y="0px"
	 width="811.459px" height="464.477px" viewBox="0 0 811.459 464.477" style="enable-background:new 0 0 811.459 464.477;"
	 xml:space="preserve">
<g>
	<path style="fill-rule:evenodd;clip-rule:evenodd;fill:#6c6e71;" d="M344.928,10.229c7.689,24.577,15.373,49.156,23.074,73.73
		c1.693,5.404,1.723,5.41-3.919,5.411c-42.819,0.005-85.64,0.066-128.458-0.097c-4.067-0.015-5.672,1.236-6.928,5.071
		c-26.793,81.812-53.744,163.572-80.658,245.345c-1.768,5.371-1.745,5.389,3.908,5.39c33.656,0.003,67.312-0.09,100.968,0.117
		c4.178,0.025,5.729-1.315,6.743-5.163c5.254-19.923,10.848-39.757,16.104-59.679c0.83-3.146,2.04-4.243,5.332-4.201
		c13.994,0.179,27.991,0.154,41.985,0.004c3.032-0.032,4.275,0.876,5.075,3.901c5.314,20.086,10.968,40.082,16.26,60.174
		c0.974,3.697,2.437,4.967,6.365,4.948c35.314-0.165,70.63-0.097,106.259,0.78c-2.108,0.733-4.203,1.509-6.327,2.195
		c-90.927,29.397-181.855,58.789-272.786,88.175c-18.662,6.031-37.335,12.031-55.983,18.104c-1.375,0.447-2.987,0.51-4.014,1.793
		c-1,0-2,0-3,0c0.607-3.824-1.386-7.078-2.471-10.477c-29.776-93.248-59.598-186.48-89.486-279.691
		c-4.91-15.31-9.277-30.802-15.043-45.832c0-0.667,0-1.333,0-2c1.891-0.63,3.775-1.277,5.672-1.886
		c92.75-29.765,185.509-59.506,278.248-89.306c17.065-5.483,34.056-11.2,51.08-16.809C343.595,10.229,344.261,10.229,344.928,10.229
		z"/>
	<path style="fill-rule:evenodd;clip-rule:evenodd;fill:#99C256;" d="M804.928,344.229c-7.495-0.039-14.997-0.285-22.482-0.031
		c-3.779,0.128-4.705-1.033-4.695-4.775c0.126-49.643-0.367-99.293,0.314-148.927c0.233-17.049-7.345-20.788-21.828-22.239
		c-14.057-1.409-29.079,9.722-30.418,28.709c-1.503,21.311-0.416,42.603-0.859,63.896c-0.132,6.341-0.025,6.355-6.596,6.369
		c-5.498,0.011-10.998-0.11-16.491,0.025c-2.87,0.071-4.123-0.676-4.114-3.896c0.102-37.148,0.095-74.298,0.016-111.447
		c-0.006-2.935,1.075-3.683,3.805-3.607c5.826,0.159,11.679,0.33,17.483-0.057c4.119-0.275,5.345,1.222,4.914,5.045
		c-0.156,1.391-0.428,2.941,0.499,4.349c2.434-0.167,3.521-2.349,5.292-3.448c18.356-11.397,37.239-10.975,56.742-3.183
		c7.663,3.062,12.502,8.352,15.748,15.628c0.708,1.585,1.061,3.487,2.671,4.59C804.928,228.896,804.928,286.562,804.928,344.229z"/>
	<path style="fill-rule:evenodd;clip-rule:evenodd;fill:#99C257;" d="M443.966,237.172c-5.824-17.306-7.445-35.292-1.755-52.417
		c7.17-21.579,22.431-36.035,46.586-38.67c14.206-1.551,27.374,1.756,39.496,9.146c3.688,2.248,4.598,1.718,4.535-2.639
		c-0.206-14.323,0.021-28.652-0.146-42.977c-0.044-3.736,0.811-5.456,4.964-5.23c5.979,0.326,11.993,0.206,17.984,0.029
		c3.136-0.093,4.373,0.781,4.367,4.186c-0.096,51.475-0.096,102.948,0.003,154.423c0.007,3.326-1.059,4.374-4.255,4.262
		c-5.158-0.182-10.336-0.244-15.487,0.017c-4.03,0.204-6.957-0.449-6.56-5.855c-22.664,15.16-45.443,13.431-68.495,2.599
		C455.945,256.809,448.355,248.255,443.966,237.172z M469.894,206.279c-1.04,9.062,0.435,17.455,4.288,25.478
		c6.731,14.011,14.24,18.466,31.42,16.63c13.145-1.404,20.707-10.243,24.286-22.567c3.192-10.995,2.81-22.088-0.011-33.066
		c-2.78-10.82-9.348-18.118-20.518-20.861c-11.389-2.797-22.504-3.02-30.972,6.431C471.369,186.154,468.241,195.773,469.894,206.279
		z"/>
	<path style="fill-rule:evenodd;clip-rule:evenodd;fill:#9AC257;" d="M678.021,207.969c-0.002,11.496-0.02,22.993,0.004,34.49
		c0.014,6.471,3.058,9.264,9.372,7.784c4.814-1.128,6.148,0.345,5.586,4.921c-0.603,4.898,2.101,11.319-1.226,14.36
		c-2.947,2.695-9.134,1.972-13.918,2.509c-8.655,0.972-16.011-1.167-21.448-8.645c-4.03-5.543-4.319-5.437-10.346-1.771
		c-11.134,6.772-22.781,11.691-36.206,10.46c-10.268-0.942-20.533-1.855-29.483-7.851c-3.515-2.355-6.482-5.097-8.47-8.899
		c-11.401-21.812-1.926-46.223,22.332-53.078c13.322-3.765,26.79-6.513,40.723-5.995c3.965,0.147,7.472-1.495,11.184-2.33
		c1.34-0.301,2.198-1.472,2.876-2.644c3.854-6.668,0.388-18.052-6.745-20.37c-9.717-3.159-19.636-4.383-29.896-1.787
		c-7.284,1.842-11.095,6.574-12.418,13.282c-0.93,4.716-2.824,6.318-7.597,5.93c-5.628-0.457-11.323-0.197-16.985-0.058
		c-2.662,0.065-3.425-0.97-3.35-3.532c0.337-11.519,4.965-20.406,14.215-27.665c13.598-10.673,29.016-11.72,45.244-11.179
		c10.478,0.349,20.428,2.376,30.021,6.375c10.259,4.276,17.098,10.45,16.618,23.203
		C677.702,186.296,678.024,197.139,678.021,207.969z M649.924,224.474c0-2.497-0.067-4.995,0.02-7.489
		c0.079-2.278-0.905-2.884-3.052-2.475c-13.694,2.609-27.427,5.03-41.092,7.787c-6.834,1.379-10.754,6.237-10.759,12.383
		c-0.007,9.45,11.027,17.709,21.197,16.318c6.611-0.905,12.804-2.554,18.988-5.224C646.27,241.006,649.933,236.377,649.924,224.474z
		"/>
	<path style="fill-rule:evenodd;clip-rule:evenodd;fill:#9AC258;" d="M459.925,264.235c1.016,0.773,2.032,1.546,3.96,3.014
		c-2.302,0-3.561,0-4.818,0c-42.797-0.004-85.594-0.003-128.391-0.013c-6.85-0.002-6.271-0.088-6.993-6.559
		c-1.008-9.031,2.206-15.383,8.556-21.828c19.465-19.76,38.207-40.234,57.189-60.468c1.1-1.172,3.284-2.312,2.731-3.876
		c-0.754-2.138-3.208-1.031-4.909-1.039c-17.484-0.079-34.971-0.216-52.452,0.008c-4.106,0.053-5.163-1.244-4.948-5.095
		c0.297-5.312,0.204-10.658,0.026-15.98c-0.097-2.868,0.539-4.13,3.793-4.12c31.139,0.098,62.279,0.062,93.419-0.012
		c2.673-0.006,4.189,0.67,3.83,3.62c-0.04,0.328-0.008,0.666-0.002,0.999c0.313,16.664,0.236,16.592-11.445,29.071
		c-16.911,18.065-33.697,36.248-50.537,54.381c-0.282,0.313-0.564,0.628-0.847,0.942l-0.061,0.113
		c-2.017,1.379-4.049,2.748-4.349,5.838c2.25,0,4.229,0.001,6.208,0c22.577-0.009,45.154,0.042,67.73-0.093
		c3.381-0.021,5.264,0.975,7.022,4.043C448.481,253.887,452.596,260.563,459.925,264.235z"/>
	<path style="fill-rule:evenodd;clip-rule:evenodd;fill:#6E7073;" d="M301.549,184.563c3.077,11.351,6.173,22.695,9.224,34.052
		c1.976,7.352,3.886,14.72,5.905,22.382c-10.228,0-20.131,0-30.443,0c4.763-19.033,9.45-37.766,14.138-56.499
		C300.764,184.52,301.156,184.542,301.549,184.563z"/>
	<path style="fill-rule:evenodd;clip-rule:evenodd;fill:#757678;" d="M363.67,336.089c-9.766,0.026-9.767,0.026-9.768-9.885
		c0-7.469,0.034-14.938-0.02-22.406c-0.015-2.041,0.15-3.58,2.83-3.494c4.477,0.145,8.988-0.217,13.434,0.188
		c8.862,0.809,12.058,7.746,7.009,15.032c-0.866,1.25-1.079,1.711,0.232,2.591c4.201,2.821,5.075,6.834,3.499,11.37
		c-1.654,4.762-5.803,6.078-10.251,6.56C368.34,336.293,365.994,336.089,363.67,336.089z M365.457,331.66
		c1.733-0.113,3.546-0.196,5.352-0.357c3.294-0.292,5.128-2.074,5.224-5.422c0.096-3.354-1.635-5.355-4.923-5.646
		c-3.278-0.29-6.587-0.242-9.883-0.316c-0.832-0.019-1.93,0.064-2.036,0.979c-0.379,3.262-1.024,6.779,0.242,9.738
		C360.332,332.735,363.354,331.141,365.457,331.66z M365.225,305.109c-1.75,0.609-4.571-1.314-6.062,1.104
		c-2.556,4.148,0.473,8.985,5.373,8.99c0.829,0.001,1.658,0.009,2.487-0.001c3.624-0.043,7.569-0.188,7.562-5.022
		c-0.008-4.721-3.717-5.236-7.49-5.074C366.598,305.127,366.1,305.109,365.225,305.109z"/>
	<path style="fill-rule:evenodd;clip-rule:evenodd;fill:#737476;" d="M584.115,300.366c2.212-0.383,3.113,0.95,3.896,2.852
		c3.918,9.519,7.98,18.979,11.902,28.495c0.543,1.317,2.456,3.184,0.081,4.162c-1.975,0.813-4.565,0.649-5.053-2.335
		c-1.239-7.596-6.035-8.741-12.819-8.335c-4.24,0.254-6.199,1.484-7.402,5.408c-0.628,2.045-0.323,5.368-3.963,5.478
		c-1.88,0.057-3.527-0.062-2.482-2.694c4.105-10.339,8.243-20.667,12.275-31.034C581.244,300.58,582.432,300.237,584.115,300.366z
		 M583.929,307.275c-1.417,1.239-1.499,3.155-2.111,4.787c-3.878,10.342-3.857,10.35,7.978,8.689
		c-1.471-3.912-2.891-7.773-4.393-11.602C585.136,308.471,585.096,307.5,583.929,307.275z"/>
	<path style="fill-rule:evenodd;clip-rule:evenodd;fill:#757678;" d="M654.46,324.656c0.162,2.821-0.056,5.73,0.574,8.442
		c0.946,4.074-2.234,3.787-3.403,2.626c-2.227-2.21-3.678-0.962-5.591-0.146c-1.203,0.513-2.533,0.796-3.835,0.993
		c-5.693,0.858-10.024-1.694-10.78-6.277c-0.757-4.596,2.6-8.184,8.46-9.047c2.302-0.339,4.605-0.665,6.902-1.036
		c1.327-0.214,2.766-0.44,2.836-2.195c0.057-1.417-0.552-2.771-1.82-3.333c-3.543-1.569-7.293-2.155-9.874,1.431
		c-1.469,2.04-3.187,2.976-4.815,1.574c-1.743-1.5,0.103-3.336,1.188-4.662c2.688-3.28,10.495-4.53,15.447-2.729
		c4.825,1.755,4.885,5.757,4.838,9.858c-0.017,1.498-0.002,2.995-0.002,4.493C654.543,324.651,654.502,324.653,654.46,324.656z
		 M642.155,333.129c1.058-0.316,2.397-0.521,3.551-1.1c2.962-1.485,4.836-4.292,3.776-7.227c-0.922-2.551-3.646,0.011-5.576-0.088
		c-0.962-0.049-1.944,0.301-2.917,0.468c-2.477,0.426-4.627,1.358-4.261,4.354C637.088,332.475,639.563,332.787,642.155,333.129z"/>
	<path style="fill-rule:evenodd;clip-rule:evenodd;fill:#757678;" d="M493.856,324.42c-1.992-0.006-3.986-0.066-5.976,0.016
		c-1.25,0.052-3.066-0.507-3.43,1.117c-0.25,1.114,0.362,2.629,1.018,3.701c2.611,4.269,8.718,4.691,11.674,0.487
		c1.685-2.396,3.614-2.88,5.259-1.348c1.677,1.562-0.351,3.398-1.483,4.621c-3.354,3.621-7.64,4.281-12.324,3.344
		c-4.448-0.89-7.542-3.311-8.841-7.729c-1.637-5.568-1.385-10.991,2.698-15.419c3.286-3.563,7.665-4.375,12.372-3.201
		c2.503,0.624,4.637,1.881,6.13,3.985c1.981,2.794,3.615,6.275,2.208,9.273c-1.173,2.5-4.778,0.961-7.313,1.15
		C495.188,324.467,494.521,324.426,493.856,324.42z M491.518,320.727c1.72-1.781,5.797,1.842,6.237-2.157
		c0.372-3.386-3.004-4.896-6.218-5.145c-3.237-0.25-7.455,3.024-6.7,5.325C485.925,322.065,489.124,319.508,491.518,320.727z"/>
	<path style="fill-rule:evenodd;clip-rule:evenodd;fill:#78797B;" d="M604.589,323.093c-0.006-3.487,0.08-6.977-0.034-10.46
		c-0.084-2.548,2.146-3.247,3.088-2.242c2.115,2.26,3.441,0.71,5.242-0.02c6.915-2.801,12.938,0.68,13.522,8.036
		c0.394,4.952,0.136,9.954,0.203,14.934c0.023,1.762-0.5,2.78-2.535,2.806c-2.067,0.026-2.515-0.994-2.499-2.765
		c0.035-4.316,0.034-8.635-0.049-12.95c-0.069-3.671-1.056-6.686-5.616-6.508c-4.323,0.168-6.208,2.675-6.263,6.774
		c-0.055,4.151-0.064,8.303-0.019,12.454c0.022,2.022-0.638,3.069-2.879,2.993c-2.292-0.077-2.151-1.576-2.154-3.09
		C604.589,329.736,604.594,326.415,604.589,323.093z"/>
	<path style="fill-rule:evenodd;clip-rule:evenodd;fill:#757678;" d="M425.21,336.875c-4.409-0.444-8.55-1.006-10.526-5.587
		c-0.505-1.169-1.598-2.481,0.482-3.186c1.349-0.457,2.849-1.313,3.775,0.788c1.935,4.385,5.618,4.053,9.328,3.211
		c1.551-0.352,2.614-1.546,2.562-3.262c-0.048-1.536-1.129-2.271-2.527-2.669c-3.026-0.862-6.064-1.697-9.052-2.683
		c-3.201-1.055-5.018-3.374-4.783-6.751c0.227-3.279,2.206-5.456,5.347-6.512c4.988-1.677,11.716-0.313,13.749,2.985
		c0.664,1.078,2.361,2.686,0.466,3.765c-1.096,0.624-3.094,1.525-4.298-0.69c-1.519-2.792-4.176-2.992-6.935-2.521
		c-1.481,0.253-3.116,0.65-3.284,2.504c-0.162,1.78,1.103,2.623,2.669,3.068c2.074,0.589,4.138,1.215,6.218,1.783
		c4.039,1.103,7.746,2.541,7.521,7.738c-0.183,4.218-3.28,6.837-8.94,7.69C426.326,336.647,425.678,336.789,425.21,336.875z"/>
	<path style="fill-rule:evenodd;clip-rule:evenodd;fill:#757678;" d="M543.143,309.527c3.025,0.144,6.063,0.45,8.254,2.83
		c1.147,1.247,2.95,3.058,1.171,4.586c-1.204,1.035-3.298,0.838-4.675-1.191c-1.865-2.746-4.708-2.729-7.621-1.743
		c-1.166,0.396-2.159,0.947-2.296,2.313c-0.166,1.67,0.967,2.389,2.295,2.81c3.011,0.953,6.043,1.837,9.071,2.734
		c3.024,0.896,4.968,2.875,5.15,6.021c0.189,3.241-1.316,5.744-4.252,7.338c-5.657,3.071-13.9,1.571-16.594-3.144
		c-0.671-1.176-2.114-2.723-0.376-3.862c1.526-1.001,3.329-1.299,4.461,1.146c1.789,3.865,5.289,3.416,8.649,2.909
		c1.657-0.251,2.718-1.357,2.888-3.007c0.186-1.803-1.018-2.68-2.601-3.124c-2.402-0.676-4.821-1.295-7.207-2.025
		c-3.774-1.155-6.827-3.083-6.361-7.656c0.449-4.415,3.673-6.01,7.546-6.711C541.459,309.604,542.299,309.598,543.143,309.527z"/>
	<path style="fill-rule:evenodd;clip-rule:evenodd;fill:#757678;" d="M757.729,309.535c3.123,0.275,6.378,0.496,8.52,3.239
		c0.9,1.153,2.71,2.869,0.851,4.182c-1.133,0.801-3.248,1.38-4.589-1.073c-1.464-2.679-4.292-2.825-7.057-2.135
		c-1.496,0.373-2.987,1.001-2.944,2.853c0.035,1.506,1.159,2.258,2.558,2.661c2.867,0.826,5.726,1.684,8.573,2.574
		c3.122,0.975,5.234,2.828,5.301,6.364c0.066,3.604-1.793,5.915-4.949,7.343c-5.688,2.573-13.309,1.101-15.746-3.249
		c-0.651-1.162-2.602-2.854-0.236-4.174c1.715-0.957,3.123-0.906,4.298,1.484c1.798,3.662,5.431,3.274,8.774,2.58
		c1.531-0.317,2.682-1.421,2.784-3.119c0.112-1.87-1.227-2.535-2.771-2.957c-2.399-0.655-4.792-1.334-7.184-2.016
		c-3.874-1.104-6.571-3.097-6.174-7.698c0.4-4.634,3.679-5.903,7.461-6.644C756.007,309.592,756.849,309.605,757.729,309.535z"/>
	<path style="fill-rule:evenodd;clip-rule:evenodd;fill:#757678;" d="M518.353,336.861c-4.193-0.394-8.038-0.944-10.143-4.807
		c-0.605-1.111-2.198-2.654-0.27-3.775c1.521-0.885,3.227-1.476,4.391,1.161c1.709,3.871,5.329,3.347,8.656,2.809
		c1.565-0.253,2.706-1.323,2.927-2.998c0.248-1.888-1.021-2.634-2.573-3.089c-2.861-0.839-5.751-1.595-8.574-2.547
		c-3.095-1.043-5.079-3.008-5.013-6.581c0.071-3.751,2.208-5.777,5.512-6.782c4.349-1.322,8.598-1.021,12.354,1.692
		c1.474,1.064,3.046,3.221,1.906,4.638c-1.192,1.482-3.434,1.363-4.948-0.897c-1.566-2.34-4.218-2.484-6.747-2.016
		c-1.459,0.27-3.016,0.951-3.189,2.723c-0.186,1.879,1.313,2.481,2.793,2.92c2.226,0.659,4.464,1.273,6.691,1.923
		c3.895,1.135,7.291,2.741,6.855,7.708c-0.426,4.865-3.753,6.663-7.998,7.449C520.006,336.573,519.025,336.741,518.353,336.861z"/>
	<path style="fill-rule:evenodd;clip-rule:evenodd;fill:#737476;" d="M670.031,310.77c3.887-1.565,5.455,0.071,6.515,3.319
		c1.633,5.002,3.616,9.889,5.694,15.48c2.265-6.036,4.355-11.253,6.156-16.568c0.804-2.372,2.266-3.484,4.41-2.637
		c2.67,1.055,0.373,2.909-0.057,4.076c-3.208,8.715-6.578,17.373-10.044,25.989c-1.435,3.565-3.627,6.402-8.147,5.951
		c-1.538-0.153-2.424-0.753-2.606-2.392c-0.212-1.91,0.853-1.916,2.341-2.209c4.514-0.889,6.114-3.98,4.444-8.435
		C675.904,325.791,672.938,318.287,670.031,310.77z"/>
	<path style="fill-rule:evenodd;clip-rule:evenodd;fill:#757678;" d="M452.042,322.898c0-3.324,0.098-6.652-0.034-9.973
		c-0.09-2.281,1.518-3.665,2.867-2.532c2.619,2.197,4.383,0.321,6.494-0.312c7.101-2.13,12.393,1.556,12.561,8.85
		c0.106,4.652,0.002,9.309,0.03,13.963c0.011,1.776-0.003,3.306-2.519,3.245c-2.536-0.062-2.413-1.704-2.41-3.412
		c0.008-4.155-0.024-8.312,0.018-12.467c0.034-3.32-0.711-6.024-4.681-6.32c-4.212-0.314-6.824,1.749-7.195,5.841
		c-0.389,4.289-0.164,8.633-0.215,12.953c-0.02,1.652,0.264,3.391-2.36,3.401c-2.46,0.011-2.585-1.451-2.565-3.262
		C452.067,329.548,452.042,326.223,452.042,322.898z"/>
	<path style="fill-rule:evenodd;clip-rule:evenodd;fill:#737476;" d="M408.944,323.053c-0.001,3.5-0.068,7.001,0.02,10.499
		c0.072,2.93-2.755,3.342-3.396,2.156c-1.507-2.792-2.442-1.208-3.936-0.427c-7.544,3.944-14.317,0.031-14.553-8.42
		c-0.121-4.329-0.034-8.665-0.022-12.998c0.005-1.803-0.397-3.751,2.583-3.686c3.147,0.068,2.235,2.284,2.274,3.896
		c0.098,3.998-0.014,8,0.056,11.998c0.056,3.24,0.853,6.168,4.802,6.348c4.105,0.188,6.778-1.868,7.083-6.051
		c0.304-4.146,0.145-8.325,0.195-12.49c0.022-1.8-0.402-3.749,2.573-3.701c3.143,0.051,2.239,2.257,2.294,3.877
		C409.018,317.051,408.946,320.053,408.944,323.053z"/>
	<path style="fill-rule:evenodd;clip-rule:evenodd;fill:#737476;" d="M721.906,323.332c0.053-10.326,7.057-15.918,15.998-13.211
		c2.524,0.764,4.466,2.251,5.607,4.594c0.502,1.028,1.896,2.516-0.013,3.326c-1.21,0.514-2.944,1.002-3.937-0.836
		c-1.737-3.215-4.268-4.494-7.866-3.19c-3.987,1.444-4.789,4.743-4.87,8.401c-0.084,3.736,0.032,7.71,3.997,9.454
		c3.722,1.637,7.387,1.077,8.951-3.38c0.808-2.302,2.152-2.269,3.84-1.626c2.355,0.896,0.918,2.461,0.398,3.677
		c-1.963,4.59-5.923,6.216-10.48,6.163c-4.832-0.056-8.591-2.29-10.594-6.944C721.995,327.566,721.808,325.267,721.906,323.332z"/>
	<path style="fill-rule:evenodd;clip-rule:evenodd;fill:#78797B;" d="M703.609,301.668c0,1.98,0.022,3.629-0.006,5.276
		c-0.031,1.764-0.021,3.429,2.493,3.271c1.187-0.074,1.833,0.498,1.817,1.769c-0.016,1.227-0.637,1.865-1.801,1.889
		c-2.816,0.057-2.489,2.088-2.498,3.896c-0.018,3.325,0.022,6.65-0.016,9.976c-0.024,2.123,0.04,4.029,2.918,4.207
		c1.849,0.115,1.824,1.759,1.778,3.024c-0.063,1.752-1.676,1.362-2.695,1.432c-4.042,0.272-6.886-1.076-6.942-5.705
		c-0.047-3.823-0.02-7.647-0.104-11.47c-0.048-2.188,0.809-4.799-2.452-5.705c-0.387-0.107-0.531-1.087-0.787-1.662
		C700.013,310.15,696.715,302.408,703.609,301.668z"/>
	<path style="fill-rule:evenodd;clip-rule:evenodd;fill:#6c6e71;" d="M665.777,317.952c0,4.978-0.017,9.954,0.009,14.931
		c0.009,1.807-0.105,3.318-2.587,3.201c-2.281-0.107-2.12-1.648-2.122-3.146c-0.011-9.788,0.005-19.576-0.018-29.364
		c-0.004-1.812,0.107-3.313,2.583-3.2c2.28,0.105,2.122,1.652,2.128,3.146C665.787,308.331,665.776,313.141,665.777,317.952z"/>
	<path style="fill-rule:evenodd;clip-rule:evenodd;fill:#757678;" d="M440.907,323.018c-0.006-3.315,0.017-6.631-0.016-9.945
		c-0.016-1.612,0.051-2.921,2.286-2.893c1.913,0.024,2.659,0.702,2.645,2.622c-0.056,6.961-0.03,13.924-0.003,20.886
		c0.007,1.635-0.654,2.373-2.35,2.431c-1.965,0.066-2.619-0.792-2.579-2.658C440.967,329.981,440.912,326.499,440.907,323.018z"/>
	<path style="fill-rule:evenodd;clip-rule:evenodd;fill:#757678;" d="M716.81,323.443c0.002,3.313-0.033,6.628,0.017,9.94
		c0.027,1.814-0.603,2.725-2.578,2.74c-2.158,0.017-2.361-1.22-2.354-2.883c0.028-6.793,0.046-13.586-0.011-20.378
		c-0.015-1.816,0.487-2.716,2.508-2.69c2.085,0.025,2.453,1.114,2.43,2.833C716.773,316.484,716.807,319.963,716.81,323.443z"/>
	<path style="fill-rule:evenodd;clip-rule:evenodd;fill:#78797B;" d="M443.408,305.875c-1.951,0.223-2.574-0.788-2.532-2.65
		c0.038-1.653,0.147-2.919,2.339-2.91c1.947,0.008,2.64,0.8,2.626,2.68C445.828,304.707,445.561,306.001,443.408,305.875z"/>
	<path style="fill-rule:evenodd;clip-rule:evenodd;fill:#78797B;" d="M714.375,300.373c2.136-0.173,2.43,1.111,2.467,2.823
		c0.04,1.878-0.652,2.704-2.592,2.719c-2.137,0.016-2.362-1.198-2.379-2.889C711.853,301.216,712.359,300.109,714.375,300.373z"/>
	<path style="fill-rule:evenodd;clip-rule:evenodd;fill:#E4F4CD;" d="M368.087,237.281c0.282-0.314,0.564-0.629,0.847-0.942
		C368.651,236.653,368.369,236.967,368.087,237.281z"/>
</g>
</svg>
